<mxfile host="app.diagrams.net" modified="2020-08-10T05:18:53.406Z" agent="5.0 (Windows NT 10.0; Win64; x64) AppleWebKit/537.36 (KHTML, like Gecko) Chrome/84.0.4147.105 Safari/537.36" etag="717oTA-8gta9TChQ8qAi" version="13.6.0" type="github">
  <diagram id="kgpKYQtTHZ0yAKxKKP6v" name="Page-1">
    <mxGraphModel dx="1632" dy="437" grid="1" gridSize="10" guides="1" tooltips="1" connect="1" arrows="1" fold="1" page="1" pageScale="1" pageWidth="850" pageHeight="1100" math="0" shadow="0">
      <root>
        <mxCell id="0" />
        <mxCell id="1" parent="0" />
        <mxCell id="3nuBFxr9cyL0pnOWT2aG-1" value="Singleton/KME&#xa;Enclave Manager" style="shape=umlLifeline;perimeter=lifelinePerimeter;container=1;collapsible=0;recursiveResize=0;rounded=0;shadow=0;strokeWidth=1;" parent="1" vertex="1">
          <mxGeometry x="120" y="80" width="100" height="300" as="geometry" />
        </mxCell>
        <mxCell id="3nuBFxr9cyL0pnOWT2aG-2" value="" style="points=[];perimeter=orthogonalPerimeter;rounded=0;shadow=0;strokeWidth=1;" parent="3nuBFxr9cyL0pnOWT2aG-1" vertex="1">
          <mxGeometry x="45" y="70" width="10" height="220" as="geometry" />
        </mxCell>
        <mxCell id="3nuBFxr9cyL0pnOWT2aG-4" value="" style="points=[];perimeter=orthogonalPerimeter;rounded=0;shadow=0;strokeWidth=1;" parent="3nuBFxr9cyL0pnOWT2aG-1" vertex="1">
          <mxGeometry x="50" y="120" width="10" height="80" as="geometry" />
        </mxCell>
        <mxCell id="3nuBFxr9cyL0pnOWT2aG-5" value="Singleton/KME&#xa;Trusted Enclave" style="shape=umlLifeline;perimeter=lifelinePerimeter;container=1;collapsible=0;recursiveResize=0;rounded=0;shadow=0;strokeWidth=1;" parent="1" vertex="1">
          <mxGeometry x="451" y="80" width="100" height="300" as="geometry" />
        </mxCell>
        <mxCell id="3nuBFxr9cyL0pnOWT2aG-6" value="" style="points=[];perimeter=orthogonalPerimeter;rounded=0;shadow=0;strokeWidth=1;" parent="3nuBFxr9cyL0pnOWT2aG-5" vertex="1">
          <mxGeometry x="46" y="81" width="10" height="209" as="geometry" />
        </mxCell>
        <mxCell id="3nuBFxr9cyL0pnOWT2aG-7" value="Return Updated Signup data with new encryption key" style="verticalAlign=bottom;endArrow=open;endSize=8;shadow=0;strokeWidth=1;" parent="1" edge="1">
          <mxGeometry relative="1" as="geometry">
            <mxPoint x="175" y="256.0499999999997" as="targetPoint" />
            <mxPoint x="500.5" y="256.0499999999997" as="sourcePoint" />
          </mxGeometry>
        </mxCell>
        <mxCell id="3nuBFxr9cyL0pnOWT2aG-8" value="Trigger Key refresh" style="verticalAlign=bottom;endArrow=block;shadow=0;strokeWidth=1;" parent="1" target="3nuBFxr9cyL0pnOWT2aG-5" edge="1">
          <mxGeometry relative="1" as="geometry">
            <mxPoint x="175" y="181.0000000000001" as="sourcePoint" />
            <mxPoint x="437" y="181.0000000000001" as="targetPoint" />
          </mxGeometry>
        </mxCell>
        <mxCell id="-NnzcmwlUf4twEH-fe_p-3" value="" style="endArrow=classic;html=1;exitX=0.447;exitY=0.238;exitDx=0;exitDy=0;exitPerimeter=0;" parent="1" edge="1">
          <mxGeometry relative="1" as="geometry">
            <mxPoint x="164.70000000000005" y="159.39999999999998" as="sourcePoint" />
            <mxPoint x="160" y="188" as="targetPoint" />
            <Array as="points">
              <mxPoint x="130" y="158" />
              <mxPoint x="90" y="158" />
              <mxPoint x="80" y="178" />
              <mxPoint x="90" y="188" />
              <mxPoint x="120" y="188" />
            </Array>
          </mxGeometry>
        </mxCell>
        <mxCell id="-NnzcmwlUf4twEH-fe_p-4" value="Read Key refresh interval&lt;br&gt;from config" style="edgeLabel;resizable=0;html=1;align=center;verticalAlign=middle;" parent="-NnzcmwlUf4twEH-fe_p-3" connectable="0" vertex="1">
          <mxGeometry relative="1" as="geometry">
            <mxPoint x="-30" y="-19" as="offset" />
          </mxGeometry>
        </mxCell>
        <mxCell id="-NnzcmwlUf4twEH-fe_p-19" value="" style="endArrow=classic;html=1;exitX=0.56;exitY=0.356;exitDx=0;exitDy=0;exitPerimeter=0;" parent="1" edge="1">
          <mxGeometry relative="1" as="geometry">
            <mxPoint x="579" y="186.79999999999995" as="sourcePoint" />
            <mxPoint x="512" y="210" as="targetPoint" />
            <Array as="points">
              <mxPoint x="500" y="187" />
              <mxPoint x="602" y="187" />
              <mxPoint x="572" y="200" />
            </Array>
          </mxGeometry>
        </mxCell>
        <mxCell id="-NnzcmwlUf4twEH-fe_p-20" value="&lt;div style=&quot;text-align: left&quot;&gt;Perform Key refresh&lt;/div&gt;&lt;div style=&quot;text-align: left&quot;&gt;&lt;br&gt;&lt;/div&gt;&lt;div style=&quot;text-align: left&quot;&gt;1.Generate new pair of Encryption Keys&lt;/div&gt;&lt;div style=&quot;text-align: left&quot;&gt;2. Sign newly generated public Encryption key&lt;/div&gt;&lt;div style=&quot;text-align: left&quot;&gt;3. Seal Enclave Data with updated encryption keys&lt;/div&gt;&lt;div style=&quot;text-align: left&quot;&gt;&lt;br&gt;&lt;/div&gt;" style="edgeLabel;resizable=0;html=1;align=center;verticalAlign=middle;" parent="-NnzcmwlUf4twEH-fe_p-19" connectable="0" vertex="1">
          <mxGeometry relative="1" as="geometry">
            <mxPoint x="140.45" y="-19.93" as="offset" />
          </mxGeometry>
        </mxCell>
        <mxCell id="-NnzcmwlUf4twEH-fe_p-23" value="" style="endArrow=classic;html=1;" parent="1" source="3nuBFxr9cyL0pnOWT2aG-1" edge="1">
          <mxGeometry relative="1" as="geometry">
            <mxPoint x="100" y="300" as="sourcePoint" />
            <mxPoint x="160" y="310" as="targetPoint" />
            <Array as="points">
              <mxPoint x="120" y="340" />
              <mxPoint x="110" y="330" />
              <mxPoint x="110" y="310" />
            </Array>
          </mxGeometry>
        </mxCell>
        <mxCell id="-NnzcmwlUf4twEH-fe_p-24" value="Persiist updated&lt;br&gt;Worker details to KV Storage" style="edgeLabel;resizable=0;html=1;align=center;verticalAlign=middle;" parent="-NnzcmwlUf4twEH-fe_p-23" connectable="0" vertex="1">
          <mxGeometry relative="1" as="geometry">
            <mxPoint x="-52" y="-34" as="offset" />
          </mxGeometry>
        </mxCell>
      </root>
    </mxGraphModel>
  </diagram>
</mxfile>
